<svg width="128.000000" height="128.000000" viewBox="0 0 128 128" fill="none" xmlns="http://www.w3.org/2000/svg" xmlns:xlink="http://www.w3.org/1999/xlink">
	<desc>
			Created with Pixso.
	</desc>
	<defs>
		<clipPath id="clip8_27">
			<rect id="tiku" width="89.000000" height="81.000000" transform="translate(22.000000 32.000000)" fill="white"/>
		</clipPath>
	</defs>
	<g clip-path="url(#clip8_27)">
		<path id="path" d="M26.3013 99.1606C22.9478 96.6393 21.7813 93.2554 22.0729 87.0184C22.3645 82.8383 22.729 81.644 24.4058 79.6535C25.5723 78.2601 26.0826 77.1321 25.6452 76.8667C25.2078 76.6013 24.1871 75.208 23.3852 73.7482C22.1458 71.4923 21.9271 70.0989 22.1458 65.5871C22.2916 61.0089 22.6561 59.8145 24.26 57.8904L26.1555 55.6344L24.0413 52.6486C22.2187 50.0609 22 49.132 22 44.2884C22 39.3784 22.2187 38.6486 24.1871 36.1936C25.3536 34.6675 26.9575 33.1414 27.7594 32.8097C28.7072 32.3452 42.8506 32.0798 70.1167 32.0798L111.016 32.0798L110.797 33.8713C110.651 35.331 110.068 35.7955 108.1 36.1272C104.09 36.8571 102.705 38.7149 102.34 43.5585C101.903 49.3974 103.288 51.7197 107.735 52.715C110.797 53.4448 111.016 53.6439 110.797 55.5017C110.579 57.2932 110.214 57.625 108.1 58.0231C104.09 58.7529 102.705 60.6107 102.34 65.4544C101.903 71.2932 103.288 73.6155 107.735 74.6771C110.797 75.4734 111.016 75.6724 110.797 77.4639C110.579 79.189 110.141 79.5871 107.881 80.0516C103.944 80.9141 102.705 82.5729 102.34 87.4165C101.903 93.1227 103.288 95.5113 107.662 96.573C110.579 97.3028 110.943 97.5682 110.943 99.227L110.943 101.085L28.9259 101.085L26.3013 99.1606ZM97.9661 94.9805C96.2893 92.0611 96.2893 84.8952 97.9661 82.0421L99.1326 79.8525L81.1982 79.8525C71.2832 79.8525 62.7534 79.5871 62.2431 79.2554C61.6599 78.99 61.3682 77.9947 61.514 77.1321L61.7328 75.5397L80.4691 75.3407L99.2055 75.2079L97.6745 72.0895C95.9248 68.5065 96.1435 62.3359 98.1119 59.6155L99.2784 57.9567L80.9795 57.824C65.0135 57.625 62.5347 57.4922 61.8786 56.5633C61.4411 55.9662 61.3682 54.9709 61.5869 54.3737C62.0244 53.4448 64.1386 53.3121 80.7607 53.3121L99.4242 53.3121L98.1119 51.5207C96.3622 48.9993 96.2164 41.2363 97.9661 38.1841L99.1326 36.0609L31.5504 36.0609L29.582 37.6533C27.8323 38.9803 27.5407 39.8429 27.2491 43.4922C26.7388 50.9235 29.3633 53.3121 38.2576 53.3121L41.6841 53.3121L41.6841 48.6012C41.6841 41.4353 41.757 41.369 51.0158 41.369C56.192 41.369 59.1811 41.6344 59.7643 42.1652C60.4205 42.7623 60.6392 48.8666 60.6392 65.5207C60.6392 85.5587 60.4934 88.1464 59.3998 89.2744C57.7959 90.9331 57.3585 90.8004 54.5153 88.1464C53.1301 86.8857 51.7449 85.8241 51.3804 85.8241C51.0158 85.8241 49.9223 86.6203 48.9016 87.5492C46.0583 90.2696 44.6732 90.7341 43.0693 89.407C41.9757 88.4781 41.6841 87.3502 41.6841 83.8999L41.6841 79.4544L36.1434 79.9189C29.0717 80.4497 27.6865 81.5113 27.2491 87.1511C26.8846 92.1274 28.051 94.9805 31.0401 96.1749C32.7898 96.8383 40.3718 97.0374 66.2528 97.1038L99.1326 97.1038L97.9661 94.9805ZM52.9843 80.516L54.8069 82.0421L54.8069 46.0135L47.5164 46.0135L47.5164 82.0421L49.3391 80.516L51.1617 78.99L52.9843 80.516ZM41.6841 66.4496L41.6841 57.625L36.2163 57.9567C29.1446 58.4212 27.6865 59.5491 27.2491 65.2553C26.6659 72.5539 29.2904 75.1416 37.5286 75.2079L41.6841 75.2079L41.6841 66.4496Z" fill-rule="nonzero" fill="#FF5056"/>
	</g>
</svg>
