<svg width="128.000000" height="128.000000" viewBox="0 0 128 128" fill="none" xmlns="http://www.w3.org/2000/svg" xmlns:xlink="http://www.w3.org/1999/xlink">
	<desc>
			Created with Pixso.
	</desc>
	<defs>
		<clipPath id="clip16_7">
			<rect id="pen" width="128.000000" height="128.000000" fill="white" fill-opacity="0"/>
		</clipPath>
	</defs>
	<rect id="favicon" width="128.000000" height="128.000000" fill="#FFFFFF" fill-opacity="0"/>
	<rect id="矩形 5" x="0.500000" y="0.500000" rx="8.000000" width="127.000000" height="127.000000" fill="#C4C4C4" fill-opacity="0"/>
	<rect id="矩形 5" x="0.500000" y="0.500000" rx="8.000000" width="127.000000" height="127.000000" stroke="#C4C4C4" stroke-opacity="1.000000" stroke-width="1.000000"/>
	<g clip-path="url(#clip16_7)">
		<path id="path" d="M68.475 51.0125L36.4875 51.0125L36.4875 39.4125C36.4875 37.5125 38.0375 35.9625 39.9375 35.9625L65.025 35.9625C66.925 35.9625 68.475 37.5125 68.475 39.4125L68.475 51.0125Z" fill="#D5D9CF" fill-opacity="1.000000" fill-rule="nonzero"/>
		<path id="path" d="M69.1625 51.7L35.8 51.7L35.8 39.4125C35.8 37.125 37.6625 35.275 39.9375 35.275L65.025 35.275C67.3125 35.275 69.1625 37.1375 69.1625 39.4125L69.1625 51.7ZM37.175 50.325L67.7875 50.325L67.7875 39.4125C67.7875 37.8875 66.55 36.65 65.025 36.65L39.9375 36.65C38.4125 36.65 37.175 37.8875 37.175 39.4125L37.175 50.325Z" fill="#333336" fill-opacity="1.000000" fill-rule="nonzero"/>
		<path id="path" d="M69.8375 55.775L35.125 55.775C34.3 55.775 33.625 55.1 33.625 54.275L33.625 52.5125C33.625 51.6875 34.3 51.0125 35.125 51.0125L69.8375 51.0125C70.6625 51.0125 71.3375 51.6875 71.3375 52.5125L71.3375 54.275C71.3375 55.1 70.6625 55.775 69.8375 55.775Z" fill="#D5D9CF" fill-opacity="1.000000" fill-rule="nonzero"/>
		<path id="path" d="M69.8375 56.4625L35.125 56.4625C33.925 56.4625 32.9375 55.475 32.9375 54.275L32.9375 52.5125C32.9375 51.3125 33.925 50.325 35.125 50.325L69.8375 50.325C71.0375 50.325 72.025 51.3125 72.025 52.5125L72.025 54.275C72.025 55.4875 71.05 56.4625 69.8375 56.4625ZM35.125 51.7C34.675 51.7 34.3125 52.0625 34.3125 52.5125L34.3125 54.275C34.3125 54.725 34.675 55.0875 35.125 55.0875L69.8375 55.0875C70.2875 55.0875 70.65 54.725 70.65 54.275L70.65 52.5125C70.65 52.0625 70.2875 51.7 69.8375 51.7L35.125 51.7Z" fill="#333336" fill-opacity="1.000000" fill-rule="nonzero"/>
		<path id="path" d="M76.025 61.05C73.4375 60.525 70.875 60.025 66.1875 59.675L66.1875 55.775L38.775 55.775L38.775 59.7375C34.175 60.1125 31.575 60.6625 28.9125 61.2125C25.1125 61.9875 22.4 65.325 22.4 69.2L22.4 98.3C22.4 99.7875 23.6125 101 25.1 101L79.8625 101C81.35 101 82.5625 99.7875 82.5625 98.3L82.5625 69.0375C82.5625 65.15 79.825 61.8125 76.025 61.05Z" fill="#FFD632" fill-opacity="1.000000" fill-rule="nonzero"/>
		<path id="path" d="M79.8625 101.688L25.1 101.688C23.2375 101.688 21.7125 100.175 21.7125 98.3L21.7125 69.1875C21.7125 65.0125 24.6875 61.3625 28.775 60.525L29 60.475C31.4375 59.975 33.95 59.4625 38.0875 59.0875L38.0875 55.075L66.875 55.075L66.875 59.025C71.25 59.375 73.75 59.875 76.1625 60.3625C80.275 61.1875 83.25 64.825 83.25 69.025L83.25 98.2875C83.25 100.163 81.725 101.688 79.8625 101.688ZM39.4625 56.4625L39.4625 60.375L38.825 60.425C34.4 60.7875 31.7875 61.325 29.275 61.8375L29.05 61.8875C25.5875 62.6 23.0875 65.675 23.0875 69.2L23.0875 98.3C23.0875 99.4125 23.9875 100.312 25.1 100.312L79.8625 100.312C80.975 100.312 81.875 99.4125 81.875 98.3L81.875 69.0375C81.875 65.5 79.3625 62.4125 75.8875 61.725C73.4 61.225 70.825 60.7125 66.1375 60.3625L65.5 60.3125L65.5 56.4625L39.4625 56.4625Z" fill="#333336" fill-opacity="1.000000" fill-rule="nonzero"/>
		<path id="path" d="M82.675 103.838L22.3 103.838C21.4875 103.838 20.8375 103.188 20.8375 102.375L20.8375 97.7875C20.8375 96.975 21.4875 96.325 22.3 96.325L82.675 96.325C83.4875 96.325 84.1375 96.975 84.1375 97.7875L84.1375 102.375C84.1375 103.188 83.475 103.838 82.675 103.838Z" fill="#D8A128" fill-opacity="1.000000" fill-rule="nonzero"/>
		<path id="path" d="M82.675 104.525L22.3 104.525C21.1125 104.525 20.15 103.562 20.15 102.375L20.15 97.7875C20.15 96.6 21.1125 95.6375 22.3 95.6375L82.675 95.6375C83.8625 95.6375 84.825 96.6 84.825 97.7875L84.825 102.375C84.825 103.562 83.8625 104.525 82.675 104.525ZM22.2875 97.0125C21.8625 97.0125 21.5125 97.3625 21.5125 97.7875L21.5125 102.375C21.5125 102.8 21.8625 103.15 22.2875 103.15L82.6625 103.15C83.0875 103.15 83.4375 102.8 83.4375 102.375L83.4375 97.7875C83.4375 97.3625 83.0875 97.0125 82.6625 97.0125L22.2875 97.0125Z" fill="#333336" fill-opacity="1.000000" fill-rule="nonzero"/>
		<path id="path" d="M22.4 73.5375L82.5625 73.5375L82.5625 87.4L22.4 87.4L22.4 73.5375Z" fill="#68A240" fill-opacity="1.000000" fill-rule="nonzero"/>
		<path id="path" d="M83.25 88.0875L21.7125 88.0875L21.7125 72.85L83.25 72.85L83.25 88.0875ZM23.0875 86.7125L81.875 86.7125L81.875 74.225L23.0875 74.225L23.0875 86.7125Z" fill="#333336" fill-opacity="1.000000" fill-rule="nonzero"/>
		<path id="path" d="M103.312 87.9L104.125 103.775C104.125 104.037 103.962 104.25 103.8 104.45C101.775 107.037 99.1125 111.375 98.0625 112.825C97.6625 113.388 96.875 113.45 96.525 112.85C95.4625 111.013 92.6875 106.225 90.8 104.438C90.625 104.275 90.525 104.037 90.525 103.8L91.3375 87.8875C91.3375 87.4 91.725 87.0125 92.2125 87.0125L102.425 87.0125C102.925 87.025 103.312 87.425 103.312 87.9Z" fill="#D5D9CF" fill-opacity="1.000000" fill-rule="nonzero"/>
		<path id="path" d="M97.2375 113.975L97.15 113.975C96.6375 113.95 96.1875 113.675 95.925 113.212C94.9875 111.6 92.1625 106.7 90.325 104.962C90.0125 104.662 89.8375 104.25 89.8375 103.825L89.8375 103.787L90.6375 87.8875C90.65 87.0375 91.35 86.3375 92.2 86.3375L102.412 86.3375C103.275 86.3375 103.963 87.025 103.975 87.8875L104.787 103.787C104.787 104.287 104.512 104.65 104.325 104.887C103.037 106.537 101.487 108.887 100.25 110.787C99.575 111.825 98.9875 112.712 98.6 113.237C98.2875 113.7 97.775 113.975 97.2375 113.975ZM91.225 103.837C91.225 103.887 91.25 103.925 91.2875 103.962C93.0625 105.637 95.475 109.65 97.125 112.525C97.1625 112.6 97.2 112.6 97.2375 112.6C97.3125 112.6 97.425 112.55 97.5125 112.437C97.875 111.937 98.45 111.05 99.125 110.037C100.375 108.125 101.95 105.737 103.263 104.037C103.313 103.962 103.425 103.837 103.438 103.787L102.638 87.9125C102.638 87.8124 102.55 87.725 102.45 87.725L92.2375 87.725C92.1375 87.725 92.05 87.8124 92.05 87.9125L92.05 87.95L91.225 103.837Z" fill="#333336" fill-opacity="1.000000" fill-rule="nonzero"/>
		<path id="path" d="M100.3 92.4625L94.35 92.4625C91.45 92.4625 89.1 90.1125 89.1 87.2125L89.1 41.95L105.55 41.95L105.55 87.2125C105.55 90.1125 103.2 92.4625 100.3 92.4625Z" fill="#FFD632" fill-opacity="1.000000" fill-rule="nonzero"/>
		<path id="path" d="M100.3 93.15L94.35 93.15C91.075 93.15 88.4125 90.4875 88.4125 87.2125L88.4125 41.2625L106.238 41.2625L106.238 87.2125C106.238 90.4875 103.575 93.15 100.3 93.15ZM89.7875 42.6375L89.7875 87.2125C89.7875 89.725 91.8375 91.775 94.35 91.775L100.3 91.775C102.812 91.775 104.863 89.725 104.863 87.2125L104.863 42.6375L89.7875 42.6375Z" fill="#333336" fill-opacity="1.000000" fill-rule="nonzero"/>
		<path id="path" d="M107.175 33.0375C107.175 19.175 102.763 14.7125 97.325 14.7125C91.8875 14.7125 87.475 19.175 87.475 33.0375L87.475 52.7625C87.475 56.95 90.875 60.35 95.0625 60.35L99.5875 60.35C103.775 60.35 107.175 56.95 107.175 52.7625L107.175 33.0375Z" fill="#68A240" fill-opacity="1.000000" fill-rule="nonzero"/>
		<path id="path" d="M99.5875 61.0375L95.0625 61.0375C90.5 61.0375 86.7875 57.325 86.7875 52.7625L86.7875 33.0375C86.7875 26.4375 87.7875 21.4875 89.775 18.3125C91.55 15.475 94.0875 14.025 97.325 14.025C100.563 14.025 103.088 15.4625 104.875 18.3125C106.863 21.4875 107.863 26.4375 107.863 33.0375L107.863 52.7625C107.863 57.325 104.15 61.0375 99.5875 61.0375ZM97.325 15.4C94.6 15.4 92.4625 16.625 90.95 19.0375C89.1 21.9875 88.175 26.6875 88.175 33.0375L88.175 52.7625C88.175 56.5625 91.275 59.6625 95.075 59.6625L99.6 59.6625C103.4 59.6625 106.5 56.5625 106.5 52.7625L106.5 33.0375C106.5 26.7 105.563 21.9875 103.725 19.0375C102.2 16.625 100.05 15.4 97.325 15.4Z" fill="#333336" fill-opacity="1.000000" fill-rule="nonzero"/>
		<path id="path" d="M95.5375 98.8875C95.537 99.1248 95.5821 99.3532 95.6726 99.5726C95.7631 99.792 95.8922 99.9857 96.0598 100.154C96.2275 100.322 96.4209 100.451 96.6401 100.542C96.8594 100.633 97.0877 100.678 97.325 100.678C97.5623 100.678 97.7906 100.633 98.0098 100.542C98.2291 100.451 98.4225 100.322 98.5902 100.154C98.7578 99.9857 98.8869 99.792 98.9774 99.5726C99.0679 99.3532 99.113 99.1248 99.1125 98.8875C99.113 98.6501 99.0679 98.4218 98.9774 98.2024C98.8869 97.983 98.7578 97.7892 98.5902 97.6213C98.4225 97.4533 98.2291 97.3239 98.0098 97.2329C97.7906 97.142 97.5623 97.0965 97.325 97.0965C97.0877 97.0965 96.8594 97.142 96.6401 97.2329C96.4209 97.3239 96.2275 97.4533 96.0598 97.6213C95.8921 97.7892 95.7631 97.983 95.6726 98.2024C95.5821 98.4218 95.537 98.6501 95.5375 98.8875Z" fill="#F2F0E7" fill-opacity="1.000000" fill-rule="nonzero"/>
		<path id="path" d="M97.325 101.362C95.9625 101.362 94.85 100.25 94.85 98.8875C94.85 97.525 95.9625 96.4125 97.325 96.4125C98.6875 96.4125 99.8 97.525 99.8 98.8875C99.8 100.25 98.6875 101.362 97.325 101.362ZM97.325 97.7875C96.7125 97.7875 96.225 98.275 96.225 98.8875C96.225 99.4999 96.7125 99.9875 97.325 99.9875C97.9375 99.9875 98.425 99.4999 98.425 98.8875C98.425 98.275 97.9375 97.7875 97.325 97.7875Z" fill="#333336" fill-opacity="1.000000" fill-rule="nonzero"/>
		<path id="path" d="M96.6375 100.675L98.0125 100.675L98.0125 112.862L96.6375 112.862L96.6375 100.675Z" fill="#333336" fill-opacity="1.000000" fill-rule="nonzero"/>
		<path id="path" d="M97.325 52.7125C96.9125 52.7125 96.575 52.375 96.575 51.9625L96.575 24.3625C96.575 23.95 96.9125 23.6125 97.325 23.6125C97.7375 23.6125 98.075 23.95 98.075 24.3625L98.075 51.9625C98.075 52.375 97.7375 52.7125 97.325 52.7125Z" fill="#333336" fill-opacity="1.000000" fill-rule="nonzero"/>
	</g>
</svg>
